<svg width="63" height="53" viewBox="0 0 63 53" fill="none" xmlns="http://www.w3.org/2000/svg">
<path d="M37.3991 22.747L31.5 20.0541L37.3991 17.3611L40.0909 11.4595L42.7827 17.3611L48.6818 20.0541L42.7827 22.747L40.0909 28.6486L37.3991 22.747ZM8.59091 34.3784L11.2827 28.4768L17.1818 25.7838L11.2827 23.0908L8.59091 17.1892L5.89909 23.0908L0 25.7838L5.89909 28.4768L8.59091 34.3784ZM21.4773 20.0541L24.5986 13.1497L31.5 10.027L24.5986 6.90432L21.4773 0L18.3559 6.90432L11.4545 10.027L18.3559 13.1497L21.4773 20.0541ZM10.0227 53L27.2045 35.7822L38.6591 47.2416L63 19.8535L58.9623 15.8141L38.6591 38.647L27.2045 27.1876L5.72727 48.7027L10.0227 53Z" fill="white"/>
</svg>
